<svg xmlns="http://www.w3.org/2000/svg" width="766" height="766" viewBox="274 0 766 766">
<defs><clipPath id="circle-clip"><circle cx="657" cy="383" r="383"/></clipPath></defs>
<g clip-path="url(#circle-clip)">
<path d="M 444.50 685.22 C431.19,688.16 392.68,688.60 374.50,686.02 C355.10,683.27 330.09,676.46 321.04,671.46 C319.64,670.69 316.92,669.37 315.00,668.51 C313.08,667.66 310.38,666.32 309.00,665.54 C307.62,664.75 304.39,663.15 301.81,661.99 C299.23,660.83 295.41,658.31 293.31,656.38 C291.21,654.46 286.71,650.83 283.30,648.32 C277.62,644.15 269.36,634.59 264.59,626.67 C263.54,624.93 260.97,621.23 258.87,618.45 C254.57,612.74 248.29,599.59 246.99,593.54 C246.51,591.32 245.24,586.80 244.17,583.50 C241.10,574.06 237.96,555.26 238.00,546.50 C238.02,542.10 238.74,534.22 239.60,529.00 C240.47,523.78 241.58,516.60 242.07,513.07 C243.09,505.75 247.11,495.38 253.72,483.00 C258.50,474.05 259.24,473.01 269.43,460.94 C279.21,449.35 296.26,435.06 304.00,431.97 C305.92,431.21 310.13,429.10 313.35,427.29 C316.56,425.48 319.73,424.00 320.40,424.00 C321.06,424.00 322.03,423.59 322.55,423.10 C323.07,422.60 325.52,421.50 328.00,420.65 C330.48,419.80 335.65,417.90 339.50,416.43 C350.27,412.32 370.92,408.76 395.99,406.69 C411.91,405.38 412.99,404.80 408.97,399.68 C407.59,397.94 405.90,397.00 404.12,397.00 C402.61,397.00 398.77,395.42 395.57,393.50 C392.37,391.58 389.47,389.98 389.13,389.95 C388.10,389.86 378.60,382.90 371.31,376.90 C361.62,368.92 343.97,349.57 339.94,342.50 C338.06,339.20 335.73,335.15 334.76,333.50 C331.00,327.11 324.00,311.11 323.99,308.87 C323.99,308.12 323.36,306.31 322.60,304.85 C320.83,301.45 318.96,295.79 318.63,292.82 C318.49,291.54 317.90,288.70 317.32,286.50 C312.51,268.40 312.83,225.92 317.93,205.17 C321.28,191.51 325.53,179.84 329.62,173.00 C330.45,171.62 332.06,168.48 333.22,166.00 C334.37,163.52 336.06,160.38 336.98,159.00 C337.89,157.62 341.30,152.45 344.54,147.50 C347.78,142.55 352.70,136.07 355.47,133.11 C361.02,127.16 375.10,115.31 382.65,110.24 C391.29,104.43 398.19,100.00 398.61,100.00 C398.84,100.00 400.93,99.16 403.26,98.13 C419.60,90.92 426.90,88.32 433.25,87.43 C435.59,87.11 438.40,86.48 439.50,86.04 C440.60,85.59 446.67,84.40 453.00,83.40 C466.37,81.27 499.24,81.00 510.00,82.93 C513.58,83.57 519.20,84.46 522.50,84.91 C525.80,85.36 530.24,86.46 532.37,87.36 C534.50,88.26 537.33,89.00 538.66,89.00 C539.99,89.00 542.84,89.90 545.00,91.00 C547.16,92.10 549.74,93.00 550.74,93.00 C551.74,93.00 553.44,93.61 554.53,94.35 C555.61,95.09 557.62,95.99 559.00,96.34 C562.24,97.16 582.24,108.84 587.80,113.16 C609.70,130.15 621.96,145.23 634.51,170.59 C637.53,176.69 640.00,182.62 640.00,183.78 C640.00,184.94 640.45,186.16 641.00,186.50 C641.55,186.84 642.00,188.07 642.00,189.24 C642.00,190.41 642.85,193.20 643.90,195.43 C644.94,197.67 646.03,201.30 646.32,203.50 C646.61,205.70 647.78,212.83 648.92,219.35 C653.80,247.18 649.91,289.80 640.90,307.24 C640.40,308.19 640.00,309.62 640.00,310.40 C640.00,311.92 633.25,327.67 631.72,329.71 C631.22,330.38 629.62,333.34 628.16,336.28 C626.70,339.23 624.47,342.96 623.21,344.57 C621.95,346.18 618.80,350.42 616.21,353.98 C609.37,363.41 599.51,373.54 591.50,379.41 C582.02,386.35 566.28,395.70 560.35,397.91 C555.93,399.57 553.14,400.69 547.50,403.10 C535.00,408.45 523.09,410.95 498.08,413.48 C490.15,414.28 483.23,415.37 482.70,415.90 C480.66,417.94 483.31,420.18 493.33,424.88 C499.05,427.55 504.04,430.26 504.43,430.89 C504.82,431.52 507.25,433.17 509.82,434.56 C519.76,439.91 533.16,451.26 541.50,461.39 C543.70,464.07 546.06,466.84 546.75,467.55 C547.44,468.27 548.00,469.49 548.00,470.27 C548.00,471.05 548.88,472.49 549.96,473.46 C551.04,474.44 553.24,477.77 554.86,480.87 C556.48,483.97 559.38,489.52 561.30,493.21 C568.37,506.74 573.04,529.74 572.98,550.71 C572.95,560.85 568.12,587.01 565.27,592.54 C564.71,593.62 562.75,597.88 560.91,602.00 C557.18,610.39 550.18,622.00 548.86,622.00 C548.39,622.00 548.00,622.71 548.00,623.57 C548.00,626.81 525.84,649.92 517.68,655.20 C515.38,656.69 511.58,659.30 509.22,661.00 C503.77,664.95 492.81,670.71 487.00,672.68 C484.52,673.51 479.58,675.47 476.00,677.02 C472.42,678.57 465.90,680.60 461.50,681.53 C457.10,682.46 449.45,684.12 444.50,685.22 ZM 449.00 397.34 C472.70,400.55 498.94,398.50 517.50,391.99 C526.29,388.90 543.77,380.24 549.34,376.20 C559.69,368.71 568.84,360.37 576.85,351.13 C585.17,341.54 597.00,323.18 597.00,319.86 C597.00,318.90 597.45,317.84 598.00,317.50 C599.31,316.69 603.00,308.57 603.00,306.51 C603.00,305.62 603.72,303.50 604.61,301.79 C606.33,298.45 609.61,288.01 610.98,281.50 C611.44,279.30 612.75,273.79 613.89,269.25 C616.22,260.00 618.56,230.79 617.68,222.03 C615.37,199.25 613.74,189.81 610.40,180.00 C608.44,174.23 606.01,168.15 605.00,166.50 C603.99,164.85 602.38,161.48 601.41,159.00 C598.81,152.35 584.87,133.03 580.02,129.35 C579.18,128.72 577.38,127.21 576.00,126.00 C567.71,118.67 550.60,108.60 540.00,104.81 C533.21,102.38 529.81,101.63 509.00,97.96 C498.79,96.15 469.11,98.26 454.00,101.87 C449.30,102.99 441.29,106.26 431.00,111.25 C404.74,124.01 382.12,146.11 368.78,172.06 C365.83,177.80 362.68,183.62 361.78,185.00 C360.89,186.38 359.48,189.98 358.65,193.00 C357.83,196.02 355.99,202.55 354.58,207.50 C348.14,230.01 346.49,242.19 346.54,267.00 C346.56,280.85 346.98,288.69 347.84,291.18 C348.54,293.20 349.48,297.92 349.94,301.68 C350.39,305.43 352.17,312.48 353.89,317.34 C356.98,326.09 370.59,352.00 372.10,352.00 C372.53,352.00 374.94,354.68 377.46,357.95 C382.61,364.64 393.95,374.65 402.69,380.22 C417.37,389.56 432.30,395.08 449.00,397.34 ZM 1149.00 693.35 C1143.84,695.01 1117.08,694.17 1113.40,692.23 C1112.36,691.68 1108.69,690.51 1105.27,689.64 C1101.84,688.76 1096.89,686.88 1094.27,685.44 C1091.64,684.01 1086.51,681.18 1082.86,679.17 C1073.09,673.77 1056.02,658.10 1048.58,647.71 C1046.88,645.34 1044.48,642.33 1043.23,641.00 C1041.99,639.67 1040.19,636.81 1039.23,634.64 C1038.28,632.47 1035.74,627.27 1033.59,623.10 C1025.75,607.86 1024.25,604.42 1023.52,600.11 C1023.11,597.70 1021.94,593.87 1020.91,591.61 C1019.88,589.35 1019.03,586.07 1019.02,584.32 C1019.01,582.56 1018.51,579.86 1017.91,578.32 C1012.34,564.01 1012.98,516.19 1018.97,498.00 C1019.43,496.62 1020.81,491.67 1022.05,487.00 C1023.29,482.33 1024.69,478.07 1025.15,477.55 C1025.62,477.03 1026.00,475.79 1026.00,474.80 C1026.00,471.93 1037.56,451.65 1043.50,444.11 C1045.15,442.01 1047.84,438.54 1049.47,436.40 C1055.53,428.46 1074.37,412.36 1079.61,410.65 C1081.20,410.13 1083.57,408.87 1084.88,407.85 C1086.20,406.83 1088.00,405.99 1088.88,405.99 C1089.77,405.98 1092.53,405.24 1095.00,404.34 C1105.00,400.73 1120.45,398.79 1132.50,399.63 C1148.65,400.76 1170.20,409.31 1183.44,419.83 C1190.81,425.68 1210.00,444.71 1210.00,446.16 C1210.00,446.62 1211.50,448.68 1213.32,450.75 C1215.15,452.81 1218.45,457.88 1220.65,462.00 C1222.86,466.12 1225.18,470.40 1225.81,471.50 C1229.55,478.00 1237.07,500.65 1240.55,515.90 C1245.11,535.85 1244.83,578.79 1240.05,593.50 C1238.97,596.80 1237.56,601.53 1236.91,604.00 C1234.73,612.32 1233.76,615.49 1232.88,617.24 C1232.39,618.19 1232.00,619.82 1232.00,620.85 C1232.00,621.88 1231.08,623.89 1229.96,625.32 C1228.84,626.74 1227.43,629.39 1226.81,631.20 C1226.20,633.02 1222.95,638.26 1219.60,642.85 C1216.24,647.44 1212.35,652.96 1210.94,655.11 C1205.13,664.02 1187.78,679.00 1178.56,683.08 C1176.24,684.10 1173.18,685.86 1171.76,686.98 C1170.26,688.15 1165.23,689.82 1159.84,690.94 C1154.70,691.99 1149.82,693.08 1149.00,693.35 ZM 375.50 669.96 C382.99,671.10 408.28,671.12 418.50,670.00 C433.30,668.38 444.82,665.25 458.00,659.26 C461.58,657.63 465.69,656.01 467.15,655.66 C468.60,655.30 471.62,653.55 473.85,651.76 C476.07,649.97 480.00,647.19 482.58,645.59 C495.96,637.26 505.56,628.03 514.95,614.48 C516.85,611.74 518.74,609.26 519.16,608.97 C519.81,608.51 523.93,600.00 531.16,584.13 C532.84,580.46 533.99,576.11 536.48,564.00 C537.78,557.68 539.16,533.92 538.65,526.56 C537.35,507.52 535.50,499.26 530.06,488.21 C527.28,482.56 525.00,477.50 525.00,476.97 C525.00,476.45 522.92,472.98 520.37,469.26 C511.95,456.97 500.36,447.57 480.22,436.73 C468.69,430.53 461.55,428.23 442.00,424.44 C427.57,421.65 418.69,421.45 397.50,423.43 C384.86,424.62 380.15,425.57 367.56,429.51 C352.08,434.34 339.16,440.15 332.86,445.13 C330.85,446.71 328.80,448.00 328.31,448.00 C326.72,448.00 314.73,458.10 308.00,465.10 C298.08,475.44 289.01,488.01 286.46,494.99 C285.75,496.92 283.76,501.37 282.03,504.89 C274.55,520.07 271.72,534.62 271.68,558.00 C271.64,586.14 276.27,602.26 290.29,622.83 C296.42,631.83 302.43,637.95 313.07,646.06 C320.93,652.04 341.37,662.98 344.79,663.02 C345.73,663.04 349.20,663.97 352.50,665.10 C358.12,667.02 363.41,668.14 375.50,669.96 ZM 1126.00 676.98 C1135.14,679.70 1150.78,679.07 1160.10,675.60 C1168.23,672.57 1178.32,665.64 1183.84,659.28 C1186.12,656.65 1189.18,653.15 1190.63,651.50 C1192.08,649.85 1193.89,647.03 1194.66,645.23 C1195.42,643.43 1197.38,639.78 1199.02,637.12 C1200.66,634.46 1202.00,631.37 1202.00,630.25 C1202.00,628.05 1204.67,618.49 1206.02,615.88 C1206.48,614.99 1207.64,608.92 1208.61,602.38 C1210.65,588.62 1210.88,552.50 1209.02,537.50 C1206.43,516.63 1197.93,486.00 1191.47,474.24 C1189.56,470.77 1188.00,467.22 1188.00,466.35 C1188.00,462.70 1175.24,444.70 1165.21,434.20 C1158.04,426.69 1143.07,418.37 1132.46,415.99 C1126.09,414.56 1109.18,414.62 1102.04,416.09 C1095.77,417.38 1086.73,421.69 1079.86,426.65 C1074.35,430.64 1064.88,442.07 1063.01,447.00 C1062.28,448.92 1060.88,451.40 1059.91,452.50 C1058.94,453.60 1057.83,455.85 1057.44,457.50 C1057.05,459.15 1056.14,461.62 1055.42,463.00 C1053.25,467.16 1050.32,477.08 1049.07,484.50 C1048.42,488.35 1047.47,493.52 1046.95,496.00 C1045.65,502.26 1045.64,517.53 1046.93,530.00 C1047.53,535.78 1048.26,543.65 1048.55,547.50 C1049.52,560.21 1052.17,575.31 1055.73,588.45 C1057.66,595.58 1059.58,602.10 1060.00,602.95 C1062.34,607.72 1064.00,612.30 1064.00,613.97 C1064.00,615.02 1064.45,616.16 1065.00,616.50 C1065.55,616.84 1066.01,617.88 1066.03,618.81 C1066.05,619.74 1067.82,622.97 1069.97,626.00 C1072.12,629.03 1075.09,633.75 1076.57,636.50 C1086.21,654.43 1106.74,671.24 1126.00,676.98 ZM 926.00 743.92 C920.22,744.52 915.05,744.96 914.50,744.90 C913.95,744.84 909.22,744.15 904.00,743.37 C898.78,742.60 892.47,741.70 890.00,741.38 C885.09,740.74 883.72,740.31 864.50,733.51 C857.35,730.98 847.45,727.56 842.50,725.91 C837.55,724.25 831.59,722.02 829.26,720.95 C826.93,719.88 824.78,719.00 824.48,719.00 C823.39,719.00 800.41,709.68 797.01,707.87 C795.10,706.84 793.03,706.00 792.42,706.00 C791.82,706.00 787.31,704.62 782.41,702.93 C770.55,698.84 761.62,697.06 749.22,696.31 C737.46,695.61 730.57,696.81 722.00,701.08 C716.82,703.66 716.34,704.22 713.81,710.66 C712.00,715.27 711.01,719.91 710.77,724.87 C710.27,735.44 709.89,735.65 693.16,734.91 C685.88,734.59 679.46,733.86 678.89,733.29 C677.12,731.52 680.65,716.95 685.36,706.65 C690.77,694.79 704.56,685.21 720.13,682.48 C721.98,682.16 725.08,681.49 727.00,681.00 C728.92,680.51 732.24,679.67 734.36,679.14 C736.49,678.60 739.51,676.93 741.09,675.42 C744.18,672.45 750.00,658.57 750.00,654.14 C750.00,652.66 751.15,646.07 752.55,639.48 C753.95,632.89 755.49,624.93 755.97,621.79 C756.45,618.64 757.10,615.65 757.42,615.12 C757.74,614.60 758.70,610.43 759.55,605.84 C760.40,601.25 761.53,596.13 762.06,594.46 C762.97,591.58 763.88,587.53 767.59,570.02 C768.46,565.91 769.64,561.66 770.22,560.59 C770.79,559.52 771.61,556.14 772.05,553.07 C772.48,550.01 773.36,545.70 774.00,543.50 C774.64,541.30 775.57,536.80 776.06,533.50 C776.99,527.34 779.56,515.49 782.47,504.00 C783.38,500.42 784.51,495.41 784.98,492.86 C785.46,490.31 786.37,486.49 787.01,484.36 C788.12,480.64 790.23,469.50 791.98,458.00 C792.44,454.98 793.30,451.15 793.89,449.50 C794.48,447.85 795.65,442.67 796.49,438.00 C797.33,433.33 798.94,425.45 800.06,420.50 C803.79,404.05 806.18,386.30 805.27,381.72 C804.46,377.61 804.30,377.47 798.97,376.18 C783.48,372.46 780.78,371.61 778.44,369.77 C774.97,367.04 775.57,363.95 780.00,361.81 C783.05,360.34 789.23,360.03 828.03,359.42 L 872.55 358.71 L 875.53 361.30 C877.97,363.42 878.31,364.20 877.42,365.69 C875.51,368.88 866.53,372.94 857.87,374.53 C853.27,375.38 848.24,376.57 846.70,377.18 C842.09,379.00 840.96,382.06 834.07,411.29 C832.93,416.12 831.99,421.07 831.97,422.29 C831.96,423.50 830.81,428.77 829.41,434.00 C828.01,439.23 826.24,446.42 825.47,450.00 C824.71,453.58 823.65,458.30 823.12,460.50 C822.59,462.70 821.03,470.12 819.64,477.00 C818.26,483.88 816.60,491.30 815.96,493.50 C815.33,495.70 814.24,500.88 813.56,505.00 C812.88,509.12 811.59,514.75 810.69,517.50 C809.80,520.25 808.41,525.65 807.60,529.50 C806.79,533.35 805.69,538.30 805.16,540.50 C804.63,542.70 803.22,549.45 802.04,555.50 C800.86,561.55 799.28,568.75 798.53,571.50 C797.78,574.25 796.85,578.48 796.47,580.90 C796.09,583.32 795.10,586.91 794.28,588.87 C793.46,590.84 792.39,594.94 791.90,597.98 C791.42,601.01 790.57,605.53 790.01,608.00 C789.45,610.47 788.36,615.88 787.58,620.00 C786.80,624.12 785.72,628.65 785.18,630.07 C784.63,631.48 783.89,635.30 783.53,638.57 C783.17,641.83 782.03,648.55 781.00,653.50 C777.93,668.27 777.75,671.32 779.56,677.57 C781.47,684.14 787.22,691.10 792.28,692.97 C794.05,693.62 797.42,695.02 799.78,696.08 C802.13,697.13 804.76,698.00 805.63,698.00 C806.50,698.00 813.57,700.50 821.35,703.55 C829.13,706.61 837.08,709.72 839.00,710.47 C840.92,711.22 846.55,713.43 851.50,715.38 C862.00,719.51 874.01,723.48 882.50,725.63 C885.80,726.47 890.30,727.62 892.50,728.19 C894.70,728.76 901.31,729.44 907.20,729.70 C921.17,730.32 929.48,727.97 936.25,721.48 C941.36,716.58 943.29,711.90 945.00,700.28 C946.65,689.09 947.15,687.82 950.91,685.28 C953.57,683.49 955.69,683.00 960.78,683.00 C967.89,683.00 972.48,685.04 975.40,689.48 C979.44,695.65 975.49,712.75 967.44,723.95 C964.05,728.68 953.98,737.00 951.67,737.00 C951.11,737.00 949.95,737.61 949.08,738.37 C946.58,740.53 937.38,742.75 926.00,743.92 ZM 706.46 392.97 C696.03,393.49 676.37,394.10 662.77,394.31 C640.77,394.65 637.60,394.50 634.10,392.93 C630.10,391.14 627.40,387.77 628.52,385.96 C629.80,383.89 638.99,380.67 648.50,378.96 C652.98,378.15 655.17,377.40 659.95,375.06 C662.91,373.60 665.20,369.10 667.12,360.92 C668.20,356.29 669.77,349.80 670.60,346.50 C671.43,343.20 672.74,337.28 673.51,333.33 C674.28,329.39 675.87,322.64 677.04,318.33 C678.22,314.03 679.57,308.48 680.04,306.00 C681.83,296.70 682.76,292.30 684.39,285.50 C688.03,270.26 697.75,226.17 700.47,212.50 C701.24,208.65 703.01,201.00 704.42,195.50 C705.82,190.00 706.98,184.68 706.99,183.69 C706.99,182.69 707.62,179.77 708.39,177.19 C709.15,174.61 710.30,170.02 710.94,167.00 C711.58,163.98 712.49,159.70 712.97,157.50 C713.45,155.30 714.59,149.90 715.50,145.50 C716.40,141.10 717.82,135.48 718.65,133.00 C719.48,130.52 720.12,127.47 720.08,126.20 C720.05,124.94 720.96,120.44 722.11,116.20 C723.26,111.97 724.59,105.80 725.06,102.50 C725.53,99.20 727.06,91.60 728.46,85.62 C729.85,79.64 731.00,73.68 731.00,72.39 C731.00,69.35 727.89,67.41 721.00,66.15 C717.97,65.59 713.03,64.04 710.00,62.71 C706.97,61.37 702.03,59.71 699.00,59.02 C695.97,58.32 692.34,57.33 690.92,56.83 C684.85,54.64 655.61,52.25 653.75,53.78 C653.06,54.35 650.35,55.13 647.72,55.52 C641.42,56.46 637.34,59.35 632.61,66.22 C628.89,71.61 628.69,72.32 628.04,82.18 C627.02,97.76 624.06,101.77 613.33,102.16 C605.74,102.43 603.93,101.74 600.24,97.15 C594.84,90.42 595.21,79.38 601.25,67.50 C604.05,61.98 616.46,49.16 620.76,47.34 C631.88,42.63 641.79,40.52 654.50,40.16 C666.99,39.81 681.19,41.11 687.50,43.19 C689.15,43.73 693.65,44.99 697.50,45.99 C701.35,46.98 707.65,48.78 711.50,49.98 C715.35,51.17 720.75,52.74 723.50,53.46 C726.25,54.18 730.86,55.95 733.75,57.38 C736.63,58.82 739.90,60.00 741.01,60.00 C742.12,60.00 743.81,60.40 744.76,60.89 C745.72,61.38 756.62,65.02 769.00,69.00 C781.38,72.97 794.20,77.11 797.50,78.19 C806.44,81.13 827.31,81.84 836.55,79.53 C845.26,77.35 847.59,76.12 852.14,71.33 C857.73,65.45 859.16,61.71 860.02,50.75 C860.45,45.32 861.00,40.67 861.24,40.43 C861.48,40.18 867.87,39.48 875.43,38.86 C891.95,37.51 892.42,37.72 892.13,46.50 C891.95,51.83 888.39,64.40 885.42,70.14 C883.44,73.98 873.47,82.56 866.37,86.53 C853.01,94.01 824.04,97.33 808.74,93.13 C804.47,91.96 799.88,91.00 798.55,91.00 C797.21,91.00 795.84,90.55 795.50,90.00 C795.16,89.45 793.45,89.00 791.69,89.00 C789.94,89.00 786.13,88.10 783.24,87.00 C780.35,85.90 776.94,85.00 775.68,85.00 C774.42,85.00 772.51,84.34 771.44,83.53 C770.37,82.72 768.46,82.05 767.18,82.03 C761.72,81.96 759.08,85.80 757.10,96.68 C755.43,105.90 752.06,122.00 750.54,128.00 C749.78,131.02 748.18,138.00 747.00,143.50 C745.82,149.00 743.96,157.32 742.86,162.00 C741.76,166.68 740.68,171.35 740.46,172.40 C740.24,173.44 739.64,175.69 739.13,177.40 C738.62,179.10 737.67,183.43 737.03,187.00 C736.39,190.57 735.01,197.32 733.98,202.00 C732.95,206.68 731.82,212.68 731.48,215.33 C731.13,217.99 730.18,222.04 729.36,224.33 C728.54,226.63 727.70,230.07 727.51,232.00 C727.31,233.93 725.33,242.93 723.11,252.00 C720.88,261.08 718.40,271.88 717.59,276.00 C716.77,280.12 715.14,287.77 713.95,293.00 C712.77,298.23 711.41,304.52 710.95,307.00 C709.93,312.42 707.83,321.53 704.96,333.00 C702.71,342.01 702.34,343.97 699.50,361.80 L 697.71 373.11 L 700.09 374.80 C702.89,376.79 705.81,377.58 715.97,379.07 C725.05,380.40 726.37,381.05 728.01,385.03 C729.16,387.79 729.08,388.36 727.36,390.08 C725.66,391.79 723.13,392.14 706.46,392.97 ZM 918.33 639.43 C917.47,639.76 904.56,640.26 889.64,640.55 C867.30,640.98 861.81,640.82 858.62,639.61 C853.50,637.68 852.62,636.65 853.40,633.55 C854.32,629.87 857.53,627.00 860.75,626.99 C862.26,626.98 865.80,625.91 868.60,624.60 C872.73,622.68 873.82,621.64 874.32,619.17 C875.14,615.06 874.26,566.83 872.97,545.00 C872.40,535.38 871.75,516.92 871.52,504.00 C870.85,466.11 869.95,450.85 868.21,448.20 C866.35,445.36 860.00,442.00 856.47,442.00 C852.85,442.00 850.26,440.42 848.65,437.22 C847.15,434.26 847.43,432.45 849.79,429.75 C851.18,428.15 854.04,428.00 882.46,428.00 C915.78,428.00 916.00,428.03 916.00,433.05 C916.00,436.81 913.60,438.51 904.62,441.10 C901.02,442.15 898.60,442.72 897.03,444.19 C893.85,447.16 894.10,453.80 894.91,475.36 C894.95,476.46 894.99,477.59 895.04,478.76 C895.63,494.57 896.32,508.53 896.58,509.79 C896.84,511.05 898.19,512.50 899.59,513.04 C902.97,514.32 949.50,514.27 954.15,512.97 C956.16,512.42 958.04,511.35 958.33,510.59 C958.61,509.84 958.45,498.26 957.96,484.86 C956.77,452.63 956.23,447.19 953.92,444.41 C952.77,443.02 940.71,439.00 937.70,439.00 C933.65,439.00 932.19,430.04 935.91,428.05 C938.37,426.73 999.73,426.33 1001.03,427.63 C1001.60,428.20 1002.33,430.28 1002.65,432.24 C1003.35,436.52 1002.12,437.40 991.61,440.10 C984.20,442.01 983.54,442.56 982.00,448.10 C981.07,451.47 982.27,496.61 983.44,502.30 C983.69,503.51 984.18,515.97 984.53,530.00 C984.88,544.03 985.30,558.65 985.47,562.50 C985.63,566.35 986.06,578.72 986.42,590.00 C987.28,616.55 988.00,620.33 992.83,623.43 C994.85,624.73 998.28,626.10 1000.47,626.48 C1002.65,626.86 1005.70,627.83 1007.25,628.63 C1009.81,629.95 1010.01,630.44 1009.42,633.79 C1009.10,635.61 1008.94,636.93 1008.26,637.90 C1006.44,640.51 1000.89,640.50 978.46,640.50 C977.53,640.50 976.56,640.50 975.57,640.50 C947.12,640.50 945.08,640.38 943.11,638.60 C941.79,637.41 941.00,635.47 941.00,633.46 C941.00,629.59 943.63,627.54 950.70,625.92 C959.92,623.81 960.33,623.60 961.21,620.50 C961.70,618.79 961.57,603.54 960.90,585.00 C960.26,567.12 959.76,548.19 959.79,542.93 C959.82,537.67 959.54,532.92 959.17,532.38 C957.44,529.86 949.51,529.00 927.88,529.01 C903.23,529.01 898.36,529.73 897.41,533.51 C897.07,534.84 897.29,544.95 897.90,555.97 C898.51,566.98 899.00,585.04 899.00,596.10 C899.00,622.55 899.90,624.65 912.25,626.89 C919.21,628.15 921.66,629.37 922.49,631.95 C923.18,634.13 920.75,638.50 918.33,639.43 ZM 786.72 341.35 C767.18,342.56 746.48,342.91 742.58,342.09 C738.00,341.12 735.64,338.55 736.99,336.01 C737.50,335.07 740.57,333.33 743.83,332.14 C753.00,328.80 754.28,327.35 757.87,316.30 C761.02,306.61 761.91,303.62 766.08,289.00 C769.51,277.00 773.01,264.78 774.11,261.00 C774.67,259.08 775.49,255.93 775.93,254.00 C776.36,252.07 777.69,247.68 778.88,244.23 C780.07,240.77 781.72,234.70 782.56,230.73 C783.39,226.75 785.60,218.77 787.47,213.00 C792.72,196.75 794.00,192.28 794.00,190.25 C794.00,189.22 795.40,184.35 797.11,179.44 C798.82,174.52 800.58,168.70 801.01,166.50 C801.44,164.30 802.66,160.23 803.73,157.45 C804.80,154.68 805.97,150.57 806.33,148.33 C807.18,143.03 804.52,139.35 799.21,138.45 C792.48,137.32 792.00,137.02 792.00,133.99 C792.00,132.41 792.39,130.88 792.87,130.58 C794.00,129.88 803.03,129.33 827.52,128.45 C845.49,127.82 847.68,127.91 848.92,129.40 C851.22,132.18 848.98,135.32 843.68,136.74 C837.49,138.40 836.43,140.54 838.43,147.41 C839.28,150.33 840.65,154.02 841.48,155.61 C842.31,157.20 842.99,159.07 842.99,159.76 C843.00,160.46 843.45,161.81 844.00,162.76 C844.55,163.72 847.06,170.79 849.58,178.48 C852.10,186.17 854.78,193.59 855.54,194.98 C856.30,196.37 857.59,199.52 858.41,202.00 C859.23,204.48 861.09,209.65 862.55,213.50 C868.46,229.15 872.35,239.74 873.74,244.00 C874.55,246.48 875.79,249.85 876.50,251.50 C877.21,253.15 878.12,256.08 878.52,258.00 C878.92,259.92 880.09,263.17 881.12,265.21 C882.15,267.25 883.02,269.50 883.03,270.21 C883.05,270.92 883.94,273.30 885.00,275.50 C886.06,277.70 886.95,280.17 886.97,281.00 C886.99,281.83 887.60,283.62 888.31,285.00 C889.03,286.38 890.22,289.75 890.96,292.50 C891.71,295.25 893.31,299.52 894.52,302.00 C895.73,304.48 897.28,308.30 897.96,310.50 C901.39,321.59 906.32,327.03 914.29,328.53 C918.42,329.30 922.53,333.18 921.65,335.46 C921.32,336.33 919.85,337.49 918.37,338.05 C914.50,339.52 864.04,340.73 857.79,339.50 C848.18,337.61 848.06,331.45 857.60,329.87 C860.30,329.43 864.53,328.71 867.00,328.27 L 871.50 327.48 L 871.45 321.99 C871.41,318.06 870.48,314.45 868.17,309.27 C866.40,305.30 864.57,300.03 864.11,297.55 C863.65,295.08 862.58,292.01 861.74,290.73 C860.90,289.45 859.43,285.50 858.47,281.95 C857.51,278.40 856.11,274.50 855.36,273.29 C854.61,272.07 854.00,270.27 854.00,269.29 C853.99,268.30 853.06,265.97 851.92,264.10 L 849.85 260.71 L 821.68 261.30 C806.18,261.63 792.47,262.20 791.21,262.58 C788.09,263.50 786.53,266.90 783.10,280.18 C778.27,298.92 774.99,310.89 773.97,313.58 C773.44,314.98 773.00,318.10 773.00,320.51 C773.00,324.31 773.44,325.21 776.25,327.26 C780.06,330.02 787.23,332.00 793.44,332.00 C797.60,332.00 801.00,333.82 801.00,336.03 C801.00,336.52 800.09,337.77 798.97,338.82 C797.37,340.31 794.77,340.84 786.72,341.35 ZM 707.58 642.86 C701.84,645.56 694.10,645.57 688.05,642.89 C683.82,641.01 680.94,640.90 630.05,640.71 C579.29,640.51 576.35,640.40 573.70,638.60 C567.75,634.57 572.52,628.27 582.56,626.91 C589.90,625.91 598.92,621.38 601.59,617.33 C602.81,615.49 604.18,610.89 604.87,606.33 C606.85,593.22 608.08,585.83 609.52,578.50 C610.27,574.65 611.40,568.35 612.02,564.50 C612.65,560.65 613.60,555.77 614.15,553.65 C615.89,546.90 619.10,530.71 619.93,524.50 C620.74,518.44 623.51,503.44 625.00,497.00 C627.68,485.46 630.99,462.73 630.99,455.77 C631.00,448.97 629.81,447.85 620.55,445.98 C611.52,444.15 608.00,442.17 608.00,438.93 C608.00,437.44 608.84,435.19 609.86,433.92 C612.12,431.13 610.42,431.23 659.50,431.01 C708.47,430.79 712.93,430.40 720.60,425.67 C727.51,421.40 730.39,421.12 734.41,424.34 C737.45,426.77 739.29,431.73 740.94,442.00 C742.53,451.91 746.83,475.40 747.94,480.28 C749.08,485.30 748.59,489.29 746.65,490.84 C746.02,491.35 744.01,492.09 742.18,492.48 C739.21,493.11 738.49,492.78 735.18,489.28 C732.60,486.54 730.81,483.16 729.18,477.94 C727.90,473.85 725.96,468.48 724.88,466.00 C715.21,443.94 709.78,441.22 678.26,442.62 C666.89,443.13 662.69,443.67 661.81,444.73 C661.15,445.52 660.26,448.38 659.81,451.08 C659.36,453.79 658.58,458.14 658.06,460.75 C657.55,463.36 656.23,470.45 655.15,476.50 C654.06,482.55 652.65,489.82 652.02,492.65 C651.39,495.49 651.02,499.75 651.19,502.13 C651.65,508.48 653.56,509.17 669.50,508.75 C683.92,508.37 685.72,507.78 689.48,502.24 C691.72,498.95 692.00,497.52 692.00,489.40 C692.00,478.85 693.85,475.00 698.94,475.00 C703.68,475.00 706.64,478.22 707.41,484.22 C708.23,490.58 710.52,502.94 712.65,512.50 C714.02,518.63 715.53,527.77 717.66,542.79 C718.39,547.93 716.53,549.92 710.92,549.97 C705.56,550.02 701.94,545.50 699.97,536.29 C699.29,533.13 697.63,529.93 695.21,527.14 C691.53,522.88 691.42,522.83 682.00,521.67 C670.26,520.22 650.50,521.07 648.49,523.10 C647.07,524.54 644.80,533.47 642.93,545.00 C642.35,548.58 641.02,555.33 639.97,560.00 C638.92,564.67 637.56,572.31 636.95,576.97 C636.34,581.63 635.63,585.79 635.36,586.22 C634.63,587.40 631.00,611.81 631.00,615.52 C631.00,621.15 633.48,625.46 637.84,627.43 C641.33,629.00 644.14,629.17 661.15,628.80 C678.32,628.43 681.32,628.10 687.81,625.94 C693.38,624.08 696.23,622.41 699.81,618.89 C705.86,612.95 712.00,605.22 712.00,603.56 C712.00,602.84 713.31,599.16 714.91,595.38 C716.51,591.60 718.83,585.80 720.06,582.50 C723.20,574.13 726.43,569.99 729.80,570.03 C734.61,570.09 736.00,572.06 736.00,578.79 C736.00,585.95 734.16,600.07 733.04,601.50 C732.61,602.05 731.69,604.97 730.99,608.00 C730.30,611.03 728.66,615.62 727.36,618.22 C726.06,620.81 725.00,623.51 724.99,624.22 C724.97,626.99 712.16,640.70 707.58,642.86 ZM 240.00 408.46 C235.32,408.82 230.82,409.27 230.00,409.47 C229.18,409.67 227.60,409.46 226.50,408.99 C225.40,408.52 222.59,408.11 220.25,408.07 C216.05,408.00 206.78,405.34 200.00,402.25 C198.07,401.38 194.95,399.95 193.06,399.08 C186.13,395.90 163.35,372.02 161.51,366.00 C161.08,364.62 159.22,360.68 157.37,357.22 C155.51,353.77 153.59,349.27 153.09,347.22 C152.58,345.18 151.23,341.03 150.09,338.01 C148.94,335.00 148.00,330.86 148.00,328.83 C148.00,326.79 147.58,324.03 147.07,322.69 C145.16,317.67 144.85,289.02 146.58,277.42 C149.36,258.80 149.77,256.59 151.02,253.50 C151.69,251.85 152.60,249.15 153.04,247.50 C155.40,238.64 160.60,229.04 168.19,219.50 C176.67,208.85 182.11,204.29 192.50,199.15 C204.19,193.36 210.16,192.00 223.92,192.00 C235.33,192.00 237.36,192.29 245.51,195.05 C250.45,196.73 256.10,199.20 258.05,200.55 C260.01,201.90 262.17,203.00 262.86,203.00 C263.55,203.00 265.20,200.52 266.54,197.50 C268.54,192.97 269.41,192.00 271.44,192.00 C276.23,192.00 281.49,202.19 284.89,218.01 C285.31,219.95 286.80,224.67 288.22,228.51 C291.89,238.48 294.00,245.56 294.00,247.90 C294.00,250.60 291.34,251.83 286.71,251.25 C283.18,250.80 282.72,250.35 280.10,244.64 C273.18,229.57 271.31,226.37 266.16,220.80 C260.21,214.38 249.28,206.79 242.67,204.48 C237.68,202.74 221.27,202.52 215.53,204.11 C206.77,206.54 196.97,216.68 189.02,231.52 C185.77,237.58 182.67,244.33 182.12,246.52 C178.93,259.37 178.11,263.45 176.98,272.34 C176.22,278.26 175.97,285.84 176.36,291.34 C176.97,299.98 177.27,303.79 178.52,318.64 C179.43,329.45 186.70,350.78 193.19,361.64 C199.67,372.49 205.60,378.76 215.45,385.18 C220.42,388.43 225.40,391.28 226.50,391.52 C241.64,394.77 249.38,393.90 261.96,387.52 C269.43,383.73 280.15,372.61 283.71,364.94 C289.11,353.30 290.00,351.21 290.00,350.10 C290.00,348.22 294.90,348.90 297.08,351.08 C300.10,354.10 298.87,361.22 293.36,372.78 C289.71,380.45 287.53,383.47 280.85,390.15 C275.02,395.98 271.06,399.00 266.64,400.99 C255.98,405.77 248.76,407.80 240.00,408.46 ZM 178.00 660.89 C173.88,661.52 168.70,662.38 166.50,662.78 C158.70,664.23 141.16,661.30 135.55,657.62 C134.27,656.78 130.19,655.12 126.48,653.92 C120.61,652.02 118.62,650.66 110.95,643.29 C106.12,638.64 101.47,634.31 100.63,633.67 C98.72,632.22 90.00,619.22 90.00,617.83 C90.00,617.27 89.19,615.61 88.21,614.15 C85.14,609.62 81.34,598.94 79.07,588.50 C77.87,583.00 76.48,576.92 75.99,575.00 C75.04,571.32 73.95,553.70 73.89,541.00 C73.85,531.90 78.90,506.13 81.83,500.47 C82.97,498.29 84.42,495.38 85.05,494.00 C89.94,483.44 92.15,479.70 97.59,472.78 C107.86,459.71 115.57,454.52 132.50,449.28 C138.96,447.28 142.52,446.81 151.00,446.86 C164.41,446.94 179.96,450.95 186.99,456.15 C190.63,458.84 193.87,457.89 194.67,453.88 C196.44,445.05 206.69,447.92 208.45,457.74 C208.82,459.81 209.95,463.98 210.97,467.00 C211.98,470.02 213.12,474.28 213.49,476.45 C213.86,478.63 215.03,482.10 216.08,484.16 C217.14,486.23 218.00,488.72 218.00,489.69 C218.00,490.66 218.98,493.82 220.17,496.70 C222.72,502.84 221.81,506.51 217.48,507.59 C214.00,508.47 210.47,505.15 207.27,498.02 C204.31,491.40 195.10,477.21 191.84,474.27 C186.20,469.15 182.16,466.00 181.24,466.00 C180.69,466.00 179.69,465.33 179.01,464.52 C175.13,459.84 162.18,457.02 149.50,458.09 C143.75,458.57 141.52,459.31 137.00,462.24 C126.89,468.79 122.93,473.63 116.03,487.93 C109.62,501.20 105.02,522.74 105.01,539.50 C105.00,550.81 107.62,573.66 109.54,579.12 C110.34,581.39 111.00,584.50 111.00,586.02 C111.00,589.79 116.81,605.79 119.52,609.50 C120.72,611.15 122.07,613.62 122.50,615.00 C123.40,617.88 126.29,621.99 130.25,626.01 C131.76,627.54 133.00,629.27 133.00,629.83 C133.00,630.40 134.01,631.18 135.25,631.58 C137.23,632.20 140.32,634.94 141.20,636.84 C141.88,638.34 149.78,642.76 153.50,643.74 C169.01,647.83 173.57,647.93 183.50,644.40 C189.97,642.11 191.90,640.76 200.26,632.65 C209.36,623.84 211.88,620.04 213.43,612.82 C213.74,611.35 215.57,608.47 217.49,606.44 C220.78,602.95 221.11,602.83 223.24,604.24 C226.42,606.34 226.80,613.41 224.05,619.61 C222.92,622.16 222.00,625.08 222.00,626.09 C222.00,627.10 220.65,629.47 219.00,631.35 C217.35,633.23 216.00,635.49 216.00,636.38 C216.00,638.82 209.19,645.88 203.00,649.87 C192.18,656.83 185.65,659.71 178.00,660.89 ZM 795.08 248.59 C796.28,250.05 798.76,250.14 818.46,249.49 C830.58,249.08 841.51,248.37 842.75,247.90 C845.53,246.85 845.57,244.93 842.94,237.41 C841.80,234.16 840.23,229.48 839.44,227.00 C838.65,224.52 837.17,220.93 836.13,219.00 C835.10,217.07 833.94,214.16 833.55,212.52 C833.16,210.87 831.83,207.27 830.58,204.52 C829.34,201.76 827.50,197.02 826.50,194.00 C819.40,172.53 817.63,169.50 814.53,173.52 C813.70,174.61 812.30,177.98 811.43,181.00 C810.56,184.02 808.82,189.88 807.55,194.00 C806.29,198.12 804.35,205.10 803.24,209.50 C802.13,213.90 799.80,222.00 798.05,227.50 C794.14,239.84 793.22,246.36 795.08,248.59 Z" fill="rgb(87,61,20)"/>
<path d="M 0.00 383.00 L 0.00 0.00 L 657.00 0.00 L 1314.00 0.00 L 1314.00 383.00 L 1314.00 766.00 L 657.00 766.00 L 0.00 766.00 L 0.00 383.00 ZM 926.00 743.92 C937.38,742.75 946.58,740.53 949.08,738.37 C949.95,737.61 951.11,737.00 951.67,737.00 C953.98,737.00 964.05,728.68 967.44,723.95 C975.49,712.75 979.44,695.65 975.40,689.48 C972.48,685.04 967.89,683.00 960.78,683.00 C955.69,683.00 953.57,683.49 950.91,685.28 C947.15,687.82 946.65,689.09 945.00,700.28 C943.29,711.90 941.36,716.58 936.25,721.48 C929.48,727.97 921.17,730.32 907.20,729.70 C901.31,729.44 894.70,728.76 892.50,728.19 C890.30,727.62 885.80,726.47 882.50,725.63 C874.01,723.48 862.00,719.51 851.50,715.38 C846.55,713.43 840.92,711.22 839.00,710.47 C837.08,709.72 829.13,706.61 821.35,703.55 C813.57,700.50 806.50,698.00 805.63,698.00 C804.76,698.00 802.13,697.13 799.78,696.08 C797.42,695.02 794.05,693.62 792.28,692.97 C787.22,691.10 781.47,684.14 779.56,677.57 C777.75,671.32 777.93,668.27 781.00,653.50 C782.03,648.55 783.17,641.83 783.53,638.57 C783.89,635.30 784.63,631.48 785.18,630.07 C785.72,628.65 786.80,624.12 787.58,620.00 C788.36,615.88 789.45,610.47 790.01,608.00 C790.57,605.53 791.42,601.01 791.90,597.98 C792.39,594.94 793.46,590.84 794.28,588.87 C795.10,586.91 796.09,583.32 796.47,580.90 C796.85,578.48 797.78,574.25 798.53,571.50 C799.28,568.75 800.86,561.55 802.04,555.50 C803.22,549.45 804.63,542.70 805.16,540.50 C805.69,538.30 806.79,533.35 807.60,529.50 C808.41,525.65 809.80,520.25 810.69,517.50 C811.59,514.75 812.88,509.12 813.56,505.00 C814.24,500.88 815.33,495.70 815.96,493.50 C816.60,491.30 818.26,483.88 819.64,477.00 C821.03,470.12 822.59,462.70 823.12,460.50 C823.65,458.30 824.71,453.58 825.47,450.00 C826.24,446.42 828.01,439.23 829.41,434.00 C830.81,428.77 831.96,423.50 831.97,422.29 C831.99,421.07 832.93,416.12 834.07,411.29 C840.96,382.06 842.09,379.00 846.70,377.18 C848.24,376.57 853.27,375.38 857.87,374.53 C866.53,372.94 875.51,368.88 877.42,365.69 C878.31,364.20 877.97,363.42 875.53,361.30 L 872.55 358.71 L 828.03 359.42 C789.23,360.03 783.05,360.34 780.00,361.81 C775.57,363.95 774.97,367.04 778.44,369.77 C780.78,371.61 783.48,372.46 798.97,376.18 C804.30,377.47 804.46,377.61 805.27,381.72 C806.18,386.30 803.79,404.05 800.06,420.50 C798.94,425.45 797.33,433.33 796.49,438.00 C795.65,442.67 794.48,447.85 793.89,449.50 C793.30,451.15 792.44,454.98 791.98,458.00 C790.23,469.50 788.12,480.64 787.01,484.36 C786.37,486.49 785.46,490.31 784.98,492.86 C784.51,495.41 783.38,500.42 782.47,504.00 C779.56,515.49 776.99,527.34 776.06,533.50 C775.57,536.80 774.64,541.30 774.00,543.50 C773.36,545.70 772.48,550.01 772.05,553.07 C771.61,556.14 770.79,559.52 770.22,560.59 C769.64,561.66 768.46,565.91 767.59,570.02 C763.88,587.53 762.97,591.58 762.06,594.46 C761.53,596.13 760.40,601.25 759.55,605.84 C758.70,610.43 757.74,614.60 757.42,615.12 C757.10,615.65 756.45,618.64 755.97,621.79 C755.49,624.93 753.95,632.89 752.55,639.48 C751.15,646.07 750.00,652.66 750.00,654.14 C750.00,658.57 744.18,672.45 741.09,675.42 C739.51,676.93 736.49,678.60 734.36,679.14 C732.24,679.67 728.92,680.51 727.00,681.00 C725.08,681.49 721.98,682.16 720.13,682.48 C704.56,685.21 690.77,694.79 685.36,706.65 C680.65,716.95 677.12,731.52 678.89,733.29 C679.46,733.86 685.88,734.59 693.16,734.91 C709.89,735.65 710.27,735.44 710.77,724.87 C711.01,719.91 712.00,715.27 713.81,710.66 C716.34,704.22 716.82,703.66 722.00,701.08 C730.57,696.81 737.46,695.61 749.22,696.31 C761.62,697.06 770.55,698.84 782.41,702.93 C787.31,704.62 791.82,706.00 792.42,706.00 C793.03,706.00 795.10,706.84 797.01,707.87 C800.41,709.68 823.39,719.00 824.48,719.00 C824.78,719.00 826.93,719.88 829.26,720.95 C831.59,722.02 837.55,724.25 842.50,725.91 C847.45,727.56 857.35,730.98 864.50,733.51 C883.72,740.31 885.09,740.74 890.00,741.38 C892.47,741.70 898.78,742.60 904.00,743.37 C909.22,744.15 913.95,744.84 914.50,744.90 C915.05,744.96 920.22,744.52 926.00,743.92 ZM 1149.00 693.35 C1149.82,693.08 1154.70,691.99 1159.84,690.94 C1165.23,689.82 1170.26,688.15 1171.76,686.98 C1173.18,685.86 1176.24,684.10 1178.56,683.08 C1187.78,679.00 1205.13,664.02 1210.94,655.11 C1212.35,652.96 1216.24,647.44 1219.60,642.85 C1222.95,638.26 1226.20,633.02 1226.81,631.20 C1227.43,629.39 1228.84,626.74 1229.96,625.32 C1231.08,623.89 1232.00,621.88 1232.00,620.85 C1232.00,619.82 1232.39,618.19 1232.88,617.24 C1233.76,615.49 1234.73,612.32 1236.91,604.00 C1237.56,601.53 1238.97,596.80 1240.05,593.50 C1244.83,578.79 1245.11,535.85 1240.55,515.90 C1237.07,500.65 1229.55,478.00 1225.81,471.50 C1225.18,470.40 1222.86,466.12 1220.65,462.00 C1218.45,457.88 1215.15,452.81 1213.32,450.75 C1211.50,448.68 1210.00,446.62 1210.00,446.16 C1210.00,444.71 1190.81,425.68 1183.44,419.83 C1170.20,409.31 1148.65,400.76 1132.50,399.63 C1120.45,398.79 1105.00,400.73 1095.00,404.34 C1092.53,405.24 1089.77,405.98 1088.88,405.99 C1088.00,405.99 1086.20,406.83 1084.88,407.85 C1083.57,408.87 1081.20,410.13 1079.61,410.65 C1074.37,412.36 1055.53,428.46 1049.47,436.40 C1047.84,438.54 1045.15,442.01 1043.50,444.11 C1037.56,451.65 1026.00,471.93 1026.00,474.80 C1026.00,475.79 1025.62,477.03 1025.15,477.55 C1024.69,478.07 1023.29,482.33 1022.05,487.00 C1020.81,491.67 1019.43,496.62 1018.97,498.00 C1012.98,516.19 1012.34,564.01 1017.91,578.32 C1018.51,579.86 1019.01,582.56 1019.02,584.32 C1019.03,586.07 1019.88,589.35 1020.91,591.61 C1021.94,593.87 1023.11,597.70 1023.52,600.11 C1024.25,604.42 1025.75,607.86 1033.59,623.10 C1035.74,627.27 1038.28,632.47 1039.23,634.64 C1040.19,636.81 1041.99,639.67 1043.23,641.00 C1044.48,642.33 1046.88,645.34 1048.58,647.71 C1056.02,658.10 1073.09,673.77 1082.86,679.17 C1086.51,681.18 1091.64,684.01 1094.27,685.44 C1096.89,686.88 1101.84,688.76 1105.27,689.64 C1108.69,690.51 1112.36,691.68 1113.40,692.23 C1117.08,694.17 1143.84,695.01 1149.00,693.35 ZM 444.50 685.22 C449.45,684.12 457.10,682.46 461.50,681.53 C465.90,680.60 472.42,678.57 476.00,677.02 C479.58,675.47 484.52,673.51 487.00,672.68 C492.81,670.71 503.77,664.95 509.22,661.00 C511.58,659.30 515.38,656.69 517.68,655.20 C525.84,649.92 548.00,626.81 548.00,623.57 C548.00,622.71 548.39,622.00 548.86,622.00 C550.18,622.00 557.18,610.39 560.91,602.00 C562.75,597.88 564.71,593.62 565.27,592.54 C568.12,587.01 572.95,560.85 572.98,550.71 C573.04,529.74 568.37,506.74 561.30,493.21 C559.38,489.52 556.48,483.97 554.86,480.87 C553.24,477.77 551.04,474.44 549.96,473.46 C548.88,472.49 548.00,471.05 548.00,470.27 C548.00,469.49 547.44,468.27 546.75,467.55 C546.06,466.84 543.70,464.07 541.50,461.39 C533.16,451.26 519.76,439.91 509.82,434.56 C507.25,433.17 504.82,431.52 504.43,430.89 C504.04,430.26 499.05,427.55 493.33,424.88 C483.31,420.18 480.66,417.94 482.70,415.90 C483.23,415.37 490.15,414.28 498.08,413.48 C523.09,410.95 535.00,408.45 547.50,403.10 C553.14,400.69 555.93,399.57 560.35,397.91 C566.28,395.70 582.02,386.35 591.50,379.41 C599.51,373.54 609.37,363.41 616.21,353.98 C618.80,350.42 621.95,346.18 623.21,344.57 C624.47,342.96 626.70,339.23 628.16,336.28 C629.62,333.34 631.22,330.38 631.72,329.71 C633.25,327.67 640.00,311.92 640.00,310.40 C640.00,309.62 640.40,308.19 640.90,307.24 C649.91,289.80 653.80,247.18 648.92,219.35 C647.78,212.83 646.61,205.70 646.32,203.50 C646.03,201.30 644.94,197.67 643.90,195.43 C642.85,193.20 642.00,190.41 642.00,189.24 C642.00,188.07 641.55,186.84 641.00,186.50 C640.45,186.16 640.00,184.94 640.00,183.78 C640.00,182.62 637.53,176.69 634.51,170.59 C621.96,145.23 609.70,130.15 587.80,113.16 C582.24,108.84 562.24,97.16 559.00,96.34 C557.62,95.99 555.61,95.09 554.53,94.35 C553.44,93.61 551.74,93.00 550.74,93.00 C549.74,93.00 547.16,92.10 545.00,91.00 C542.84,89.90 539.99,89.00 538.66,89.00 C537.33,89.00 534.50,88.26 532.37,87.36 C530.24,86.46 525.80,85.36 522.50,84.91 C519.20,84.46 513.58,83.57 510.00,82.93 C499.24,81.00 466.37,81.27 453.00,83.40 C446.67,84.40 440.60,85.59 439.50,86.04 C438.40,86.48 435.59,87.11 433.25,87.43 C426.90,88.32 419.60,90.92 403.26,98.13 C400.93,99.16 398.84,100.00 398.61,100.00 C398.19,100.00 391.29,104.43 382.65,110.24 C375.10,115.31 361.02,127.16 355.47,133.11 C352.70,136.07 347.78,142.55 344.54,147.50 C341.30,152.45 337.89,157.62 336.98,159.00 C336.06,160.38 334.37,163.52 333.22,166.00 C332.06,168.48 330.45,171.62 329.62,173.00 C325.53,179.84 321.28,191.51 317.93,205.17 C312.83,225.92 312.51,268.40 317.32,286.50 C317.90,288.70 318.49,291.54 318.63,292.82 C318.96,295.79 320.83,301.45 322.60,304.85 C323.36,306.31 323.99,308.12 323.99,308.87 C324.00,311.11 331.00,327.11 334.76,333.50 C335.73,335.15 338.06,339.20 339.94,342.50 C343.97,349.57 361.62,368.92 371.31,376.90 C378.60,382.90 388.10,389.86 389.13,389.95 C389.47,389.98 392.37,391.58 395.57,393.50 C398.77,395.42 402.61,397.00 404.12,397.00 C405.90,397.00 407.59,397.94 408.97,399.68 C412.99,404.80 411.91,405.38 395.99,406.69 C370.92,408.76 350.27,412.32 339.50,416.43 C335.65,417.90 330.48,419.80 328.00,420.65 C325.52,421.50 323.07,422.60 322.55,423.10 C322.03,423.59 321.06,424.00 320.40,424.00 C319.73,424.00 316.56,425.48 313.35,427.29 C310.13,429.10 305.92,431.21 304.00,431.97 C296.26,435.06 279.21,449.35 269.43,460.94 C259.24,473.01 258.50,474.05 253.72,483.00 C247.11,495.38 243.09,505.75 242.07,513.07 C241.58,516.60 240.47,523.78 239.60,529.00 C238.74,534.22 238.02,542.10 238.00,546.50 C237.96,555.26 241.10,574.06 244.17,583.50 C245.24,586.80 246.51,591.32 246.99,593.54 C248.29,599.59 254.57,612.74 258.87,618.45 C260.97,621.23 263.54,624.93 264.59,626.67 C269.36,634.59 277.62,644.15 283.30,648.32 C286.71,650.83 291.21,654.46 293.31,656.38 C295.41,658.31 299.23,660.83 301.81,661.99 C304.39,663.15 307.62,664.75 309.00,665.54 C310.38,666.32 313.08,667.66 315.00,668.51 C316.92,669.37 319.64,670.69 321.04,671.46 C330.09,676.46 355.10,683.27 374.50,686.02 C392.68,688.60 431.19,688.16 444.50,685.22 ZM 178.00 660.89 C185.65,659.71 192.18,656.83 203.00,649.87 C209.19,645.88 216.00,638.82 216.00,636.38 C216.00,635.49 217.35,633.23 219.00,631.35 C220.65,629.47 222.00,627.10 222.00,626.09 C222.00,625.08 222.92,622.16 224.05,619.61 C226.80,613.41 226.42,606.34 223.24,604.24 C221.11,602.83 220.78,602.95 217.49,606.44 C215.57,608.47 213.74,611.35 213.43,612.82 C211.88,620.04 209.36,623.84 200.26,632.65 C191.90,640.76 189.97,642.11 183.50,644.40 C173.57,647.93 169.01,647.83 153.50,643.74 C149.78,642.76 141.88,638.34 141.20,636.84 C140.32,634.94 137.23,632.20 135.25,631.58 C134.01,631.18 133.00,630.40 133.00,629.83 C133.00,629.27 131.76,627.54 130.25,626.01 C126.29,621.99 123.40,617.88 122.50,615.00 C122.07,613.62 120.72,611.15 119.52,609.50 C116.81,605.79 111.00,589.79 111.00,586.02 C111.00,584.50 110.34,581.39 109.54,579.12 C107.62,573.66 105.00,550.81 105.01,539.50 C105.02,522.74 109.62,501.20 116.03,487.93 C122.93,473.63 126.89,468.79 137.00,462.24 C141.52,459.31 143.75,458.57 149.50,458.09 C162.18,457.02 175.13,459.84 179.01,464.52 C179.69,465.33 180.69,466.00 181.24,466.00 C182.16,466.00 186.20,469.15 191.84,474.27 C195.10,477.21 204.31,491.40 207.27,498.02 C210.47,505.15 214.00,508.47 217.48,507.59 C221.81,506.51 222.72,502.84 220.17,496.70 C218.98,493.82 218.00,490.66 218.00,489.69 C218.00,488.72 217.14,486.23 216.08,484.16 C215.03,482.10 213.86,478.63 213.49,476.45 C213.12,474.28 211.98,470.02 210.97,467.00 C209.95,463.98 208.82,459.81 208.45,457.74 C206.69,447.92 196.44,445.05 194.67,453.88 C193.87,457.89 190.63,458.84 186.99,456.15 C179.96,450.95 164.41,446.94 151.00,446.86 C142.52,446.81 138.96,447.28 132.50,449.28 C115.57,454.52 107.86,459.71 97.59,472.78 C92.15,479.70 89.94,483.44 85.05,494.00 C84.42,495.38 82.97,498.29 81.83,500.47 C78.90,506.13 73.85,531.90 73.89,541.00 C73.95,553.70 75.04,571.32 75.99,575.00 C76.48,576.92 77.87,583.00 79.07,588.50 C81.34,598.94 85.14,609.62 88.21,614.15 C89.19,615.61 90.00,617.27 90.00,617.83 C90.00,619.22 98.72,632.22 100.63,633.67 C101.47,634.31 106.12,638.64 110.95,643.29 C118.62,650.66 120.61,652.02 126.48,653.92 C130.19,655.12 134.27,656.78 135.55,657.62 C141.16,661.30 158.70,664.23 166.50,662.78 C168.70,662.38 173.88,661.52 178.00,660.89 ZM 707.58 642.86 C712.16,640.70 724.97,626.99 724.99,624.22 C725.00,623.51 726.06,620.81 727.36,618.22 C728.66,615.62 730.30,611.03 730.99,608.00 C731.69,604.97 732.61,602.05 733.04,601.50 C734.16,600.07 736.00,585.95 736.00,578.79 C736.00,572.06 734.61,570.09 729.80,570.03 C726.43,569.99 723.20,574.13 720.06,582.50 C718.83,585.80 716.51,591.60 714.91,595.38 C713.31,599.16 712.00,602.84 712.00,603.56 C712.00,605.22 705.86,612.95 699.81,618.89 C696.23,622.41 693.38,624.08 687.81,625.94 C681.32,628.10 678.32,628.43 661.15,628.80 C644.14,629.17 641.33,629.00 637.84,627.43 C633.48,625.46 631.00,621.15 631.00,615.52 C631.00,611.81 634.63,587.40 635.36,586.22 C635.63,585.79 636.34,581.63 636.95,576.97 C637.56,572.31 638.92,564.67 639.97,560.00 C641.02,555.33 642.35,548.58 642.93,545.00 C644.80,533.47 647.07,524.54 648.49,523.10 C650.50,521.07 670.26,520.22 682.00,521.67 C691.42,522.83 691.53,522.88 695.21,527.14 C697.63,529.93 699.29,533.13 699.97,536.29 C701.94,545.50 705.56,550.02 710.92,549.97 C716.53,549.92 718.39,547.93 717.66,542.79 C715.53,527.77 714.02,518.63 712.65,512.50 C710.52,502.94 708.23,490.58 707.41,484.22 C706.64,478.22 703.68,475.00 698.94,475.00 C693.85,475.00 692.00,478.85 692.00,489.40 C692.00,497.52 691.72,498.95 689.48,502.24 C685.72,507.78 683.92,508.37 669.50,508.75 C653.56,509.17 651.65,508.48 651.19,502.13 C651.02,499.75 651.39,495.49 652.02,492.65 C652.65,489.82 654.06,482.55 655.15,476.50 C656.23,470.45 657.55,463.36 658.06,460.75 C658.58,458.14 659.36,453.79 659.81,451.08 C660.26,448.38 661.15,445.52 661.81,444.73 C662.69,443.67 666.89,443.13 678.26,442.62 C709.78,441.22 715.21,443.94 724.88,466.00 C725.96,468.48 727.90,473.85 729.18,477.94 C730.81,483.16 732.60,486.54 735.18,489.28 C738.49,492.78 739.21,493.11 742.18,492.48 C744.01,492.09 746.02,491.35 746.65,490.84 C748.59,489.29 749.08,485.30 747.94,480.28 C746.83,475.40 742.53,451.91 740.94,442.00 C739.29,431.73 737.45,426.77 734.41,424.34 C730.39,421.12 727.51,421.40 720.60,425.67 C712.93,430.40 708.47,430.79 659.50,431.01 C610.42,431.23 612.12,431.13 609.86,433.92 C608.84,435.19 608.00,437.44 608.00,438.93 C608.00,442.17 611.52,444.15 620.55,445.98 C629.81,447.85 631.00,448.97 630.99,455.77 C630.99,462.73 627.68,485.46 625.00,497.00 C623.51,503.44 620.74,518.44 619.93,524.50 C619.10,530.71 615.89,546.90 614.15,553.65 C613.60,555.77 612.65,560.65 612.02,564.50 C611.40,568.35 610.27,574.65 609.52,578.50 C608.08,585.83 606.85,593.22 604.87,606.33 C604.18,610.89 602.81,615.49 601.59,617.33 C598.92,621.38 589.90,625.91 582.56,626.91 C572.52,628.27 567.75,634.57 573.70,638.60 C576.35,640.40 579.29,640.51 630.05,640.71 C680.94,640.90 683.82,641.01 688.05,642.89 C694.10,645.57 701.84,645.56 707.58,642.86 ZM 918.33 639.43 C920.75,638.50 923.18,634.13 922.49,631.95 C921.66,629.37 919.21,628.15 912.25,626.89 C899.90,624.65 899.00,622.55 899.00,596.10 C899.00,585.04 898.51,566.98 897.90,555.97 C897.29,544.95 897.07,534.84 897.41,533.51 C898.36,529.73 903.23,529.01 927.88,529.01 C949.51,529.00 957.44,529.86 959.17,532.38 C959.54,532.92 959.82,537.67 959.79,542.93 C959.76,548.19 960.26,567.12 960.90,585.00 C961.57,603.54 961.70,618.79 961.21,620.50 C960.33,623.60 959.92,623.81 950.70,625.92 C943.63,627.54 941.00,629.59 941.00,633.46 C941.00,635.47 941.79,637.41 943.11,638.60 C945.08,640.38 947.12,640.50 975.57,640.50 C1009.26,640.50 1008.20,640.71 1009.42,633.79 C1010.01,630.44 1009.81,629.95 1007.25,628.63 C1005.70,627.83 1002.65,626.86 1000.47,626.48 C998.28,626.10 994.85,624.73 992.83,623.43 C988.00,620.33 987.28,616.55 986.42,590.00 C986.06,578.72 985.63,566.35 985.47,562.50 C985.30,558.65 984.88,544.03 984.53,530.00 C984.18,515.97 983.69,503.51 983.44,502.30 C982.27,496.61 981.07,451.47 982.00,448.10 C983.54,442.56 984.20,442.01 991.61,440.10 C1002.12,437.40 1003.35,436.52 1002.65,432.24 C1002.33,430.28 1001.60,428.20 1001.03,427.63 C999.73,426.33 938.37,426.73 935.91,428.05 C932.19,430.04 933.65,439.00 937.70,439.00 C940.71,439.00 952.77,443.02 953.92,444.41 C956.23,447.19 956.77,452.63 957.96,484.86 C958.45,498.26 958.61,509.84 958.33,510.59 C958.04,511.35 956.16,512.42 954.15,512.97 C949.50,514.27 902.97,514.32 899.59,513.04 C898.19,512.50 896.84,511.05 896.58,509.79 C896.32,508.53 895.63,494.57 895.04,478.76 C893.71,443.04 893.37,444.36 904.62,441.10 C913.60,438.51 916.00,436.81 916.00,433.05 C916.00,428.03 915.78,428.00 882.46,428.00 C854.04,428.00 851.18,428.15 849.79,429.75 C847.43,432.45 847.15,434.26 848.65,437.22 C850.26,440.42 852.85,442.00 856.47,442.00 C860.00,442.00 866.35,445.36 868.21,448.20 C869.95,450.85 870.85,466.11 871.52,504.00 C871.75,516.92 872.40,535.38 872.97,545.00 C874.26,566.83 875.14,615.06 874.32,619.17 C873.82,621.64 872.73,622.68 868.60,624.60 C865.80,625.91 862.26,626.98 860.75,626.99 C857.53,627.00 854.32,629.87 853.40,633.55 C852.62,636.65 853.50,637.68 858.62,639.61 C861.81,640.82 867.30,640.98 889.64,640.55 C904.56,640.26 917.47,639.76 918.33,639.43 ZM 240.00 408.46 C248.76,407.80 255.98,405.77 266.64,400.99 C271.06,399.00 275.02,395.98 280.85,390.15 C287.53,383.47 289.71,380.45 293.36,372.78 C298.87,361.22 300.10,354.10 297.08,351.08 C294.90,348.90 290.00,348.22 290.00,350.10 C290.00,351.21 289.11,353.30 283.71,364.94 C280.15,372.61 269.43,383.73 261.96,387.52 C249.38,393.90 241.64,394.77 226.50,391.52 C225.40,391.28 220.42,388.43 215.45,385.18 C205.60,378.76 199.67,372.49 193.19,361.64 C186.70,350.78 179.43,329.45 178.52,318.64 C177.27,303.79 176.97,299.98 176.36,291.34 C175.97,285.84 176.22,278.26 176.98,272.34 C178.11,263.45 178.93,259.37 182.12,246.52 C182.67,244.33 185.77,237.58 189.02,231.52 C196.97,216.68 206.77,206.54 215.53,204.11 C221.27,202.52 237.68,202.74 242.67,204.48 C249.28,206.79 260.21,214.38 266.16,220.80 C271.31,226.37 273.18,229.57 280.10,244.64 C282.72,250.35 283.18,250.80 286.71,251.25 C291.34,251.83 294.00,250.60 294.00,247.90 C294.00,245.56 291.89,238.48 288.22,228.51 C286.80,224.67 285.31,219.95 284.89,218.01 C281.49,202.19 276.23,192.00 271.44,192.00 C269.41,192.00 268.54,192.97 266.54,197.50 C265.20,200.52 263.55,203.00 262.86,203.00 C262.17,203.00 260.01,201.90 258.05,200.55 C256.10,199.20 250.45,196.73 245.51,195.05 C237.36,192.29 235.33,192.00 223.92,192.00 C210.16,192.00 204.19,193.36 192.50,199.15 C182.11,204.29 176.67,208.85 168.19,219.50 C160.60,229.04 155.40,238.64 153.04,247.50 C152.60,249.15 151.69,251.85 151.02,253.50 C149.77,256.59 149.36,258.80 146.58,277.42 C144.85,289.02 145.16,317.67 147.07,322.69 C147.58,324.03 148.00,326.79 148.00,328.83 C148.00,330.86 148.94,335.00 150.09,338.01 C151.23,341.03 152.58,345.18 153.09,347.22 C153.59,349.27 155.51,353.77 157.37,357.22 C159.22,360.68 161.08,364.62 161.51,366.00 C163.35,372.02 186.13,395.90 193.06,399.08 C194.95,399.95 198.07,401.38 200.00,402.25 C206.78,405.34 216.05,408.00 220.25,408.07 C222.59,408.11 225.40,408.52 226.50,408.99 C227.60,409.46 229.18,409.67 230.00,409.47 C230.82,409.27 235.32,408.82 240.00,408.46 ZM 706.46 392.97 C723.13,392.14 725.66,391.79 727.36,390.08 C729.08,388.36 729.16,387.79 728.01,385.03 C726.37,381.05 725.05,380.40 715.97,379.07 C705.81,377.58 702.89,376.79 700.09,374.80 L 697.71 373.11 L 699.50 361.80 C702.34,343.97 702.71,342.01 704.96,333.00 C707.83,321.53 709.93,312.42 710.95,307.00 C711.41,304.52 712.77,298.23 713.95,293.00 C715.14,287.77 716.77,280.12 717.59,276.00 C718.40,271.88 720.88,261.08 723.11,252.00 C725.33,242.93 727.31,233.93 727.51,232.00 C727.70,230.07 728.54,226.63 729.36,224.33 C730.18,222.04 731.13,217.99 731.48,215.33 C731.82,212.68 732.95,206.68 733.98,202.00 C735.01,197.32 736.39,190.57 737.03,187.00 C737.67,183.43 738.62,179.10 739.13,177.40 C739.64,175.69 740.24,173.44 740.46,172.40 C740.68,171.35 741.76,166.68 742.86,162.00 C743.96,157.32 745.82,149.00 747.00,143.50 C748.18,138.00 749.78,131.02 750.54,128.00 C752.06,122.00 755.43,105.90 757.10,96.68 C759.08,85.80 761.72,81.96 767.18,82.03 C768.46,82.05 770.37,82.72 771.44,83.53 C772.51,84.34 774.42,85.00 775.68,85.00 C776.94,85.00 780.35,85.90 783.24,87.00 C786.13,88.10 789.94,89.00 791.69,89.00 C793.45,89.00 795.16,89.45 795.50,90.00 C795.84,90.55 797.21,91.00 798.55,91.00 C799.88,91.00 804.47,91.96 808.74,93.13 C824.04,97.33 853.01,94.01 866.37,86.53 C873.47,82.56 883.44,73.98 885.42,70.14 C888.39,64.40 891.95,51.83 892.13,46.50 C892.42,37.72 891.95,37.51 875.43,38.86 C867.87,39.48 861.48,40.18 861.24,40.43 C861.00,40.67 860.45,45.32 860.02,50.75 C859.16,61.71 857.73,65.45 852.14,71.33 C847.59,76.12 845.26,77.35 836.55,79.53 C827.31,81.84 806.44,81.13 797.50,78.19 C794.20,77.11 781.38,72.97 769.00,69.00 C756.62,65.02 745.72,61.38 744.76,60.89 C743.81,60.40 742.12,60.00 741.01,60.00 C739.90,60.00 736.63,58.82 733.75,57.38 C730.86,55.95 726.25,54.18 723.50,53.46 C720.75,52.74 715.35,51.17 711.50,49.98 C707.65,48.78 701.35,46.98 697.50,45.99 C693.65,44.99 689.15,43.73 687.50,43.19 C681.19,41.11 666.99,39.81 654.50,40.16 C641.79,40.52 631.88,42.63 620.76,47.34 C616.46,49.16 604.05,61.98 601.25,67.50 C595.21,79.38 594.84,90.42 600.24,97.15 C603.93,101.74 605.74,102.43 613.33,102.16 C624.06,101.77 627.02,97.76 628.04,82.18 C628.69,72.32 628.89,71.61 632.61,66.22 C637.34,59.35 641.42,56.46 647.72,55.52 C650.35,55.13 653.06,54.35 653.75,53.78 C655.61,52.25 684.85,54.64 690.92,56.83 C692.34,57.33 695.97,58.32 699.00,59.02 C702.03,59.71 706.97,61.37 710.00,62.71 C713.03,64.04 717.97,65.59 721.00,66.15 C727.89,67.41 731.00,69.35 731.00,72.39 C731.00,73.68 729.85,79.64 728.46,85.62 C727.06,91.60 725.53,99.20 725.06,102.50 C724.59,105.80 723.26,111.97 722.11,116.20 C720.96,120.44 720.05,124.94 720.08,126.20 C720.12,127.47 719.48,130.52 718.65,133.00 C717.82,135.48 716.40,141.10 715.50,145.50 C714.59,149.90 713.45,155.30 712.97,157.50 C712.49,159.70 711.58,163.98 710.94,167.00 C710.30,170.02 709.15,174.61 708.39,177.19 C707.62,179.77 706.99,182.69 706.99,183.69 C706.98,184.68 705.82,190.00 704.42,195.50 C703.01,201.00 701.24,208.65 700.47,212.50 C697.75,226.17 688.03,270.26 684.39,285.50 C682.76,292.30 681.83,296.70 680.04,306.00 C679.57,308.48 678.22,314.03 677.04,318.33 C675.87,322.64 674.28,329.39 673.51,333.33 C672.74,337.28 671.43,343.20 670.60,346.50 C669.77,349.80 668.20,356.29 667.12,360.92 C665.20,369.10 662.91,373.60 659.95,375.06 C655.17,377.40 652.98,378.15 648.50,378.96 C638.99,380.67 629.80,383.89 628.52,385.96 C627.40,387.77 630.10,391.14 634.10,392.93 C637.60,394.50 640.77,394.65 662.77,394.31 C676.37,394.10 696.03,393.49 706.46,392.97 ZM 786.72 341.35 C794.77,340.84 797.37,340.31 798.97,338.82 C800.09,337.77 801.00,336.52 801.00,336.03 C801.00,333.82 797.60,332.00 793.44,332.00 C787.23,332.00 780.06,330.02 776.25,327.26 C773.44,325.21 773.00,324.31 773.00,320.51 C773.00,318.10 773.44,314.98 773.97,313.58 C774.99,310.89 778.27,298.92 783.10,280.18 C786.53,266.90 788.09,263.50 791.21,262.58 C792.47,262.20 806.18,261.63 821.68,261.30 L 849.85 260.71 L 851.92 264.10 C853.06,265.97 853.99,268.30 854.00,269.29 C854.00,270.27 854.61,272.07 855.36,273.29 C856.11,274.50 857.51,278.40 858.47,281.95 C859.43,285.50 860.90,289.45 861.74,290.73 C862.58,292.01 863.65,295.08 864.11,297.55 C864.57,300.03 866.40,305.30 868.17,309.27 C870.48,314.45 871.41,318.06 871.45,321.99 L 871.50 327.48 L 867.00 328.27 C864.53,328.71 860.30,329.43 857.60,329.87 C848.06,331.45 848.18,337.61 857.79,339.50 C864.04,340.73 914.50,339.52 918.37,338.05 C919.85,337.49 921.32,336.33 921.65,335.46 C922.53,333.18 918.42,329.30 914.29,328.53 C906.32,327.03 901.39,321.59 897.96,310.50 C897.28,308.30 895.73,304.48 894.52,302.00 C893.31,299.52 891.71,295.25 890.96,292.50 C890.22,289.75 889.03,286.38 888.31,285.00 C887.60,283.62 886.99,281.83 886.97,281.00 C886.95,280.17 886.06,277.70 885.00,275.50 C883.94,273.30 883.05,270.92 883.03,270.21 C883.02,269.50 882.15,267.25 881.12,265.21 C880.09,263.17 878.92,259.92 878.52,258.00 C878.12,256.08 877.21,253.15 876.50,251.50 C875.79,249.85 874.55,246.48 873.74,244.00 C872.35,239.74 868.46,229.15 862.55,213.50 C861.09,209.65 859.23,204.48 858.41,202.00 C857.59,199.52 856.30,196.37 855.54,194.98 C854.78,193.59 852.10,186.17 849.58,178.48 C847.06,170.79 844.55,163.72 844.00,162.76 C843.45,161.81 843.00,160.46 842.99,159.76 C842.99,159.07 842.31,157.20 841.48,155.61 C840.65,154.02 839.28,150.33 838.43,147.41 C836.43,140.54 837.49,138.40 843.68,136.74 C848.98,135.32 851.22,132.18 848.92,129.40 C847.68,127.91 845.49,127.82 827.52,128.45 C803.03,129.33 794.00,129.88 792.87,130.58 C792.39,130.88 792.00,132.41 792.00,133.99 C792.00,137.02 792.48,137.32 799.21,138.45 C804.52,139.35 807.18,143.03 806.33,148.33 C805.97,150.57 804.80,154.68 803.73,157.45 C802.66,160.23 801.44,164.30 801.01,166.50 C800.58,168.70 798.82,174.52 797.11,179.44 C795.40,184.35 794.00,189.22 794.00,190.25 C794.00,192.28 792.72,196.75 787.47,213.00 C785.60,218.77 783.39,226.75 782.56,230.73 C781.72,234.70 780.07,240.77 778.88,244.23 C777.69,247.68 776.36,252.07 775.93,254.00 C775.49,255.93 774.67,259.08 774.11,261.00 C773.01,264.78 769.51,277.00 766.08,289.00 C761.91,303.62 761.02,306.61 757.87,316.30 C754.28,327.35 753.00,328.80 743.83,332.14 C740.57,333.33 737.50,335.07 736.99,336.01 C735.64,338.55 738.00,341.12 742.58,342.09 C746.48,342.91 767.18,342.56 786.72,341.35 ZM 1126.00 676.98 C1106.74,671.24 1086.21,654.43 1076.57,636.50 C1075.09,633.75 1072.12,629.03 1069.97,626.00 C1067.82,622.97 1066.05,619.74 1066.03,618.81 C1066.01,617.88 1065.55,616.84 1065.00,616.50 C1064.45,616.16 1064.00,615.02 1064.00,613.97 C1064.00,612.30 1062.34,607.72 1060.00,602.95 C1059.58,602.10 1057.66,595.58 1055.73,588.45 C1052.17,575.31 1049.52,560.21 1048.55,547.50 C1048.26,543.65 1047.53,535.78 1046.93,530.00 C1045.64,517.53 1045.65,502.26 1046.95,496.00 C1047.47,493.52 1048.42,488.35 1049.07,484.50 C1050.32,477.08 1053.25,467.16 1055.42,463.00 C1056.14,461.62 1057.05,459.15 1057.44,457.50 C1057.83,455.85 1058.94,453.60 1059.91,452.50 C1060.88,451.40 1062.28,448.92 1063.01,447.00 C1064.88,442.07 1074.35,430.64 1079.86,426.65 C1086.73,421.69 1095.77,417.38 1102.04,416.09 C1109.18,414.62 1126.09,414.56 1132.46,415.99 C1143.07,418.37 1158.04,426.69 1165.21,434.20 C1175.24,444.70 1188.00,462.70 1188.00,466.35 C1188.00,467.22 1189.56,470.77 1191.47,474.24 C1197.93,486.00 1206.43,516.63 1209.02,537.50 C1210.88,552.50 1210.65,588.62 1208.61,602.38 C1207.64,608.92 1206.48,614.99 1206.02,615.88 C1204.67,618.49 1202.00,628.05 1202.00,630.25 C1202.00,631.37 1200.66,634.46 1199.02,637.12 C1197.38,639.78 1195.42,643.43 1194.66,645.23 C1193.89,647.03 1192.08,649.85 1190.63,651.50 C1189.18,653.15 1186.12,656.65 1183.84,659.28 C1178.32,665.64 1168.23,672.57 1160.10,675.60 C1150.78,679.07 1135.14,679.70 1126.00,676.98 ZM 375.50 669.96 C363.41,668.14 358.12,667.02 352.50,665.10 C349.20,663.97 345.73,663.04 344.79,663.02 C341.37,662.98 320.93,652.04 313.07,646.06 C302.43,637.95 296.42,631.83 290.29,622.83 C276.27,602.26 271.64,586.14 271.68,558.00 C271.72,534.62 274.55,520.07 282.03,504.89 C283.76,501.37 285.75,496.92 286.46,494.99 C289.01,488.01 298.08,475.44 308.00,465.10 C314.73,458.10 326.72,448.00 328.31,448.00 C328.80,448.00 330.85,446.71 332.86,445.13 C339.16,440.15 352.08,434.34 367.56,429.51 C380.15,425.57 384.86,424.62 397.50,423.43 C418.69,421.45 427.57,421.65 442.00,424.44 C461.55,428.23 468.69,430.53 480.22,436.73 C500.36,447.57 511.95,456.97 520.37,469.26 C522.92,472.98 525.00,476.45 525.00,476.97 C525.00,477.50 527.28,482.56 530.06,488.21 C535.50,499.26 537.35,507.52 538.65,526.56 C539.16,533.92 537.78,557.68 536.48,564.00 C533.99,576.11 532.84,580.46 531.16,584.13 C523.93,600.00 519.81,608.51 519.16,608.97 C518.74,609.26 516.85,611.74 514.95,614.48 C505.56,628.03 495.96,637.26 482.58,645.59 C480.00,647.19 476.07,649.97 473.85,651.76 C471.62,653.55 468.60,655.30 467.15,655.66 C465.69,656.01 461.58,657.63 458.00,659.26 C444.82,665.25 433.30,668.38 418.50,670.00 C408.28,671.12 382.99,671.10 375.50,669.96 ZM 449.00 397.34 C432.30,395.08 417.37,389.56 402.69,380.22 C393.95,374.65 382.61,364.64 377.46,357.95 C374.94,354.68 372.53,352.00 372.10,352.00 C370.59,352.00 356.98,326.09 353.89,317.34 C352.17,312.48 350.39,305.43 349.94,301.68 C349.48,297.92 348.54,293.20 347.84,291.18 C346.98,288.69 346.56,280.85 346.54,267.00 C346.49,242.19 348.14,230.01 354.58,207.50 C355.99,202.55 357.83,196.02 358.65,193.00 C359.48,189.98 360.89,186.38 361.78,185.00 C362.68,183.62 365.83,177.80 368.78,172.06 C382.12,146.11 404.74,124.01 431.00,111.25 C441.29,106.26 449.30,102.99 454.00,101.87 C469.11,98.26 498.79,96.15 509.00,97.96 C529.81,101.63 533.21,102.38 540.00,104.81 C550.60,108.60 567.71,118.67 576.00,126.00 C577.38,127.21 579.18,128.72 580.02,129.35 C584.87,133.03 598.81,152.35 601.41,159.00 C602.38,161.48 603.99,164.85 605.00,166.50 C606.01,168.15 608.44,174.23 610.40,180.00 C613.74,189.81 615.37,199.25 617.68,222.03 C618.56,230.79 616.22,260.00 613.89,269.25 C612.75,273.79 611.44,279.30 610.98,281.50 C609.61,288.01 606.33,298.45 604.61,301.79 C603.72,303.50 603.00,305.62 603.00,306.51 C603.00,308.57 599.31,316.69 598.00,317.50 C597.45,317.84 597.00,318.90 597.00,319.86 C597.00,323.18 585.17,341.54 576.85,351.13 C568.84,360.37 559.69,368.71 549.34,376.20 C543.77,380.24 526.29,388.90 517.50,391.99 C498.94,398.50 472.70,400.55 449.00,397.34 ZM 795.08 248.59 C793.22,246.36 794.14,239.84 798.05,227.50 C799.80,222.00 802.13,213.90 803.24,209.50 C804.35,205.10 806.29,198.12 807.55,194.00 C808.82,189.88 810.56,184.02 811.43,181.00 C812.30,177.98 813.70,174.61 814.53,173.52 C817.63,169.50 819.40,172.53 826.50,194.00 C827.50,197.02 829.34,201.76 830.58,204.52 C831.83,207.27 833.16,210.87 833.55,212.52 C833.94,214.16 835.10,217.07 836.13,219.00 C837.17,220.93 838.65,224.52 839.44,227.00 C840.23,229.48 841.80,234.16 842.94,237.41 C845.57,244.93 845.53,246.85 842.75,247.90 C841.51,248.37 830.58,249.08 818.46,249.49 C798.76,250.14 796.28,250.05 795.08,248.59 Z" fill="rgb(241,180,61)"/>
</g>
</svg>